Coordinates
version=1
nRows=26
nColumns=24
inDegrees=yes

Units are S.I. units (second, meters, Newtons, ...)
Angles are in degrees.

endheader
time	pelvis_tilt	pelvis_list	pelvis_rotation	pelvis_tx	pelvis_ty	pelvis_tz	hip_flexion_r	hip_adduction_r	hip_rotation_r	knee_angle_r	ankle_angle_r	subtalar_angle_r	mtp_angle_r	hip_flexion_l	hip_adduction_l	hip_rotation_l	knee_angle_l	ankle_angle_l	subtalar_angle_l	mtp_angle_l	lumbar_extension	lumbar_bending	lumbar_rotation
      4.86000000	     -2.93852163	      3.15357127	      2.36102779	     -0.67390262	      0.67388163	      0.08943492	     26.99835062	      1.65799138	     10.71487290	     -3.12841050	      9.61800894	    -14.16064271	      0.00000000	    -21.23436146	      6.47024188	     17.33736887	    -13.97087985	      6.08002129	     -5.84800653	      0.00000000	    -17.29827164	     -5.51632627	     -7.61482280
      4.87000000	     -3.15458519	      2.26311529	      1.76460814	     -0.65767963	      0.67363095	      0.09104648	     28.02033914	      3.30995197	      9.83981993	     -6.64874995	      8.81655504	    -13.97442751	      0.00000000	    -19.12396829	      5.88120168	     12.82507702	    -18.93183580	      4.92508403	     -1.88843793	      0.00000000	    -16.85567205	     -4.35822257	     -7.04257876
      4.88000000	     -3.27520536	      1.25373333	      1.04391858	     -0.64157955	      0.67358855	      0.09272688	     28.95141397	      5.08057052	      8.91248619	    -10.30091395	      7.94307512	    -13.49950765	      0.00000000	    -16.89226965	      4.99874630	      8.93540950	    -24.02377513	      2.64150465	      0.72380052	      0.00000000	    -16.58189524	     -3.04093849	     -6.27679588
      4.89000000	     -3.85699454	      0.38273864	      0.50348960	     -0.62580697	      0.67312737	      0.09404294	     30.28835311	      6.53414582	      8.17391146	    -13.87559939	      7.33227678	    -12.65867110	      0.00000000	    -13.78379566	      4.09470876	      5.84801744	    -29.46032989	     -0.57301908	      1.99059606	      0.00000000	    -15.79956804	     -1.79633654	     -5.97261653
      4.90000000	     -3.93819507	     -0.63822827	     -0.02686661	     -0.61019259	      0.67336077	      0.09542531	     30.76913890	      8.09009893	      7.69653908	    -16.89826508	      6.67475071	    -12.21879269	      0.00000000	    -11.08947125	      2.86066971	      3.34066536	    -34.78456830	     -4.19451555	      2.67655570	      0.00000000	    -15.71616286	     -0.39896413	     -5.53418980
      4.91000000	     -4.21418832	     -1.62454682	     -0.32558651	     -0.59491545	      0.67352552	      0.09648625	     31.15146532	      9.44955168	      7.37662930	    -19.35748250	      6.26108653	    -11.93774757	      0.00000000	     -7.95463864	      1.58092779	      1.62488128	    -40.09976968	     -7.94653362	      2.52265684	      0.00000000	    -15.44317967	      0.99367877	     -5.37231165
      4.92000000	     -4.32459562	     -2.65668177	     -0.46924789	     -0.57993501	      0.67403703	      0.09748586	     30.98634691	     10.74642567	      7.08762138	    -21.11581088	      6.24374096	    -11.78702482	      0.00000000	     -4.86454060	      0.18301072	      0.46837093	    -45.22334189	    -11.22110034	      2.16811095	      0.00000000	    -15.41046630	      2.38754839	     -5.24848700
      4.93000000	     -4.54143693	     -3.69139984	     -0.56075802	     -0.56525475	      0.67459409	      0.09850194	     30.60491943	     11.97712500	      6.77771223	    -22.23975068	      6.57908504	    -11.64128036	      0.00000000	     -1.56162898	     -1.21223460	     -0.21343561	    -50.10317917	    -13.50962095	      1.91486180	      0.00000000	    -15.24288071	      3.71900204	     -5.05398969
      4.94000000	     -4.78281951	     -4.71649596	     -0.62394952	     -0.55080541	      0.67535276	      0.09956914	     29.89992003	     13.14052924	      6.44467343	    -22.70992154	      7.28362801	    -11.43379849	      0.00000000	      1.80497725	     -2.56133210	     -0.51174918	    -54.63240217	    -14.50607825	      1.94019944	      0.00000000	    -15.02042473	      4.95261322	     -4.75840570
      4.95000000	     -5.01014627	     -5.68143604	     -0.73474051	     -0.53649686	      0.67643039	      0.10073685	     28.82962827	     14.22828614	      6.22732484	    -22.57170132	      8.27991298	    -11.07598998	      0.00000000	      5.11389950	     -3.78219165	     -0.55436922	    -58.68506556	    -14.13410432	      2.29213821	      0.00000000	    -14.78044582	      6.02548863	     -4.32909228
      4.96000000	     -5.19640527	     -6.53627592	     -0.89553657	     -0.52226513	      0.67793023	      0.10198188	     27.39290491	     15.19332379	      6.13800311	    -21.89724657	      9.40348583	    -10.57067122	      0.00000000	      8.29125553	     -4.82065365	     -0.42960992	    -62.16577714	    -12.60297021	      2.87429212	      0.00000000	    -14.55393637	      6.88587354	     -3.73752230
      4.97000000	     -5.33101780	     -7.23711985	     -1.10751909	     -0.50808382	      0.67982660	      0.10331757	     25.64492438	     16.00161565	      6.20352955	    -20.82129247	     10.52170188	     -9.95920853	      0.00000000	     11.29115146	     -5.65596778	     -0.24670923	    -65.01818179	    -10.16031202	      3.55075260	      0.00000000	    -14.36117295	      7.48993658	     -3.05114680
      4.98000000	     -5.41510466	     -7.73534953	     -1.35126795	     -0.49386581	      0.68208533	      0.10471285	     23.63104761	     16.60407807	      6.50084392	    -19.44472374	     11.53110698	     -9.32713940	      0.00000000	     14.07896509	     -6.24830596	     -0.06174621	    -67.18473383	     -7.19895451	      4.15393570	      0.00000000	    -14.17609470	      7.80165551	     -2.34542070
      4.99000000	     -5.43478373	     -8.00906020	     -1.64325535	     -0.47965989	      0.68462519	      0.10616141	     21.42249606	     16.98457715	      7.07813804	    -17.91814403	     12.34954323	     -8.74404501	      0.00000000	     16.63275189	     -6.60456470	      0.01271701	    -68.66883654	     -4.11569897	      4.43166617	      0.00000000	    -14.04674997	      7.81365024	     -1.64705626
      5.00000000	     -5.44675817	     -8.01192879	     -1.88878795	     -0.46537946	      0.68729076	      0.10758324	     19.09844652	     17.06962407	      8.02472298	    -16.25192978	     12.93496407	     -8.46686643	      0.00000000	     19.01245609	     -6.63667683	      0.09225141	    -69.48260208	     -1.16136814	      4.44909044	      0.00000000	    -13.84725606	      7.49084765	     -1.06985356
      5.01000000	     -5.34783074	     -7.82809086	     -2.17129676	     -0.45107900	      0.69006526	      0.10913020	     16.51286454	     16.99448997	      9.81419283	    -14.38788889	     12.92559607	     -9.20799119	      0.00000000	     21.09405879	     -6.51861747	     -0.03660290	    -69.67314058	      1.39157229	      3.83041403	      0.00000000	    -13.76456067	      6.91672010	     -0.49045882
      5.02000000	     -5.26077769	     -7.37746205	     -2.48916150	     -0.43684623	      0.69272501	      0.11055271	     13.98959747	     16.58024190	     11.73499658	    -12.60106569	     12.84953024	    -10.02306727	      0.00000000	     22.99557840	     -6.09837341	     -0.31874358	    -69.25120276	      3.50338530	      2.64008743	      0.00000000	    -13.65002732	      6.05397218	      0.02589919
      5.03000000	     -5.15130767	     -6.82564472	     -2.75135472	     -0.42269902	      0.69516400	      0.11183639	     11.44661144	     15.98620542	     13.93963793	    -10.75657402	     12.39893570	    -11.45033835	      0.00000000	     24.72013947	     -5.54298119	     -0.61988901	    -68.30959437	      5.22465306	      1.00156049	      0.00000000	    -13.56888498	      5.12172141	      0.38302995
      5.04000000	     -5.02625144	     -6.14813389	     -3.01322641	     -0.40855739	      0.69730088	      0.11311939	      8.88537310	     15.18924264	     16.29893311	     -8.83369551	     11.69003160	    -13.42674092	      0.00000000	     26.23605386	     -4.87504779	     -0.99896598	    -66.85990933	      6.60844667	     -0.78180921	      0.00000000	    -13.47424442	      4.04119448	      0.65958652
      5.05000000	     -4.99511722	     -5.42063293	     -3.32643778	     -0.39468611	      0.69896973	      0.11421134	      6.57989121	     14.26263052	     18.40457304	     -7.07127072	     11.02492176	    -15.20970274	      0.00000000	     27.68968338	     -4.12779493	     -1.42101840	    -64.93415602	      7.52695414	     -3.02299109	      0.00000000	    -13.34878870	      2.97733095	      0.98241074
      5.06000000	     -5.01091410	     -4.71523692	     -3.65984828	     -0.38102752	      0.70020286	      0.11516151	      4.46802890	     13.30522799	     20.15602418	     -5.45499579	     10.42322875	    -16.76313027	      0.00000000	     29.01309594	     -3.38416334	     -1.80878090	    -62.53914686	      8.10874421	     -5.45439419	      0.00000000	    -13.24093771	      1.99921931	      1.27850110
      5.07000000	     -5.04828024	     -4.08463486	     -3.98956056	     -0.36749473	      0.70097566	      0.11605402	      2.49342935	     12.40375068	     21.46596644	     -3.95127810	      9.95628740	    -18.06493914	      0.00000000	     30.18274629	     -2.73322891	     -2.16687623	    -59.71716896	      8.39406355	     -7.90329794	      0.00000000	    -13.15694496	      1.14072557	      1.55715607
      5.08000000	     -5.35013405	     -3.63818669	     -4.29625832	     -0.35418605	      0.70099893	      0.11679652	      1.03280053	     11.75015140	     21.88973202	     -2.80413769	     10.04004999	    -18.27447727	      0.00000000	     31.49526233	     -2.25515900	     -2.36996024	    -56.52565277	      8.41887122	    -10.39037837	      0.00000000	    -12.82797594	      0.58819889	      1.71967138
      5.09000000	     -5.19168474	     -3.20366941	     -4.67953634	     -0.34082663	      0.70126246	      0.11759086	     -0.97980328	     11.02551112	     22.82437433	     -1.55051935	      9.63929710	    -19.35016332	      0.00000000	     31.96945669	     -1.78945131	     -2.57211020	    -52.74312124	      8.44763361	    -12.55818141	      0.00000000	    -13.14401761	      0.00804654	      2.07315408
      5.10000000	     -5.55939538	     -3.00642950	     -5.03806593	     -0.32759368	      0.70043546	      0.11829284	     -2.22046493	     10.66065901	     23.03256940	     -0.68400266	      9.84281264	    -19.38336800	      0.00000000	     32.87128375	     -1.56799167	     -2.54729823	    -48.65573442	      8.40640382	    -14.53960411	      0.00000000	    -12.85464169	     -0.19178323	      2.29769205
      5.11000000	     -5.69948964	     -2.91041048	     -5.44722828	     -0.31425686	      0.69961249	      0.11900907	     -3.67381958	     10.37820829	     23.28238167	      0.07291845	     10.02891429	    -19.40928800	      0.00000000	     33.20753024	     -1.44361542	     -2.44926847	    -44.03386987	      8.31278168	    -16.31161891	      0.00000000	    -12.85784450	     -0.26785206	      2.64053495
